<svg width="150" height="55" viewBox="0 0 150 55" fill="none" xmlns="http://www.w3.org/2000/svg">
<path d="M62.7068 6.6651V8.68203H59.9685V17H57.451V8.68203H54.7127V6.6651H62.7068ZM67.0766 6.6651V17H64.5591V6.6651H67.0766ZM81.1939 6.6651V17H78.6765V10.802L76.3651 17H74.3334L72.0074 10.7873V17H69.4899V6.6651H72.4637L75.364 13.82L78.2348 6.6651H81.1939ZM86.1106 8.68203V10.7726H89.482V12.7159H86.1106V14.9831H89.9237V17H83.5932V6.6651H89.9237V8.68203H86.1106ZM95.8863 17.1031C95.1306 17.1031 94.4534 16.9804 93.8547 16.735C93.256 16.4896 92.7751 16.1265 92.4119 15.6456C92.0586 15.1646 91.8721 14.5856 91.8525 13.9084H94.5319C94.5712 14.2911 94.7037 14.5856 94.9294 14.7917C95.1551 14.988 95.4496 15.0861 95.8127 15.0861C96.1857 15.0861 96.4801 15.0027 96.696 14.8359C96.912 14.6592 97.0199 14.4187 97.0199 14.1145C97.0199 13.8593 96.9316 13.6483 96.7549 13.4814C96.5881 13.3146 96.3771 13.1772 96.1219 13.0692C95.8765 12.9612 95.5232 12.8386 95.0619 12.7012C94.3945 12.495 93.8498 12.2889 93.4277 12.0828C93.0057 11.8767 92.6426 11.5725 92.3383 11.1701C92.0341 10.7677 91.8819 10.2426 91.8819 9.59479C91.8819 8.63295 92.2304 7.88213 92.9272 7.34232C93.624 6.79269 94.5319 6.51788 95.6508 6.51788C96.7893 6.51788 97.707 6.79269 98.4038 7.34232C99.1007 7.88213 99.4736 8.63786 99.5227 9.60952H96.7991C96.7795 9.27582 96.6568 9.01573 96.4311 8.82925C96.2053 8.63295 95.9158 8.5348 95.5624 8.5348C95.2582 8.5348 95.0128 8.61823 94.8263 8.78508C94.6399 8.94212 94.5466 9.17276 94.5466 9.47702C94.5466 9.81072 94.7037 10.0708 95.0177 10.2573C95.3318 10.4438 95.8225 10.645 96.4899 10.8609C97.1573 11.0866 97.6972 11.3026 98.1094 11.5087C98.5314 11.7148 98.8945 12.0141 99.1988 12.4067C99.5031 12.7993 99.6552 13.3048 99.6552 13.9231C99.6552 14.512 99.5031 15.0469 99.1988 15.5278C98.9044 16.0087 98.4725 16.3915 97.9033 16.6761C97.334 16.9607 96.6617 17.1031 95.8863 17.1031Z" fill="#1E40AF"/>
<path d="M54.8452 25.8178C54.8452 24.7971 55.066 23.8892 55.5077 23.0942C55.9494 22.2894 56.5628 21.6662 57.348 21.2245C58.1429 20.7731 59.041 20.5473 60.0421 20.5473C61.2689 20.5473 62.3191 20.8712 63.1926 21.519C64.0661 22.1668 64.6501 23.0501 64.9445 24.169H62.1768C61.9707 23.7371 61.6762 23.4083 61.2935 23.1826C60.9205 22.9568 60.4936 22.844 60.0127 22.844C59.2373 22.844 58.6091 23.1139 58.1282 23.6537C57.6473 24.1935 57.4068 24.9149 57.4068 25.8178C57.4068 26.7208 57.6473 27.4422 58.1282 27.982C58.6091 28.5218 59.2373 28.7917 60.0127 28.7917C60.4936 28.7917 60.9205 28.6788 61.2935 28.4531C61.6762 28.2273 61.9707 27.8985 62.1768 27.4667H64.9445C64.6501 28.5856 64.0661 29.4689 63.1926 30.1167C62.3191 30.7546 61.2689 31.0736 60.0421 31.0736C59.041 31.0736 58.1429 30.8528 57.348 30.4111C56.5628 29.9596 55.9494 29.3364 55.5077 28.5414C55.066 27.7464 54.8452 26.8386 54.8452 25.8178ZM71.9628 31.1031C70.9912 31.1031 70.098 30.8773 69.2834 30.4258C68.4786 29.9744 67.8358 29.3462 67.3548 28.5414C66.8837 27.7268 66.6482 26.814 66.6482 25.8031C66.6482 24.7922 66.8837 23.8843 67.3548 23.0795C67.8358 22.2747 68.4786 21.6466 69.2834 21.1951C70.098 20.7436 70.9912 20.5179 71.9628 20.5179C72.9345 20.5179 73.8227 20.7436 74.6275 21.1951C75.4422 21.6466 76.0801 22.2747 76.5414 23.0795C77.0125 23.8843 77.2481 24.7922 77.2481 25.8031C77.2481 26.814 77.0125 27.7268 76.5414 28.5414C76.0703 29.3462 75.4323 29.9744 74.6275 30.4258C73.8227 30.8773 72.9345 31.1031 71.9628 31.1031ZM71.9628 28.8064C72.7873 28.8064 73.4449 28.5316 73.9356 27.982C74.4361 27.4323 74.6864 26.7061 74.6864 25.8031C74.6864 24.8903 74.4361 24.164 73.9356 23.6242C73.4449 23.0746 72.7873 22.7998 71.9628 22.7998C71.1286 22.7998 70.4612 23.0697 69.9606 23.6095C69.4699 24.1493 69.2245 24.8805 69.2245 25.8031C69.2245 26.7159 69.4699 27.4471 69.9606 27.9967C70.4612 28.5365 71.1286 28.8064 71.9628 28.8064ZM90.9416 20.6651V31H88.4241V24.802L86.1127 31H84.0811L81.755 24.7873V31H79.2375V20.6651H82.2114L85.1116 27.82L87.9824 20.6651H90.9416ZM101.217 23.9923C101.217 24.591 101.08 25.1406 100.805 25.6412C100.53 26.1319 100.108 26.5294 99.5388 26.8337C98.9695 27.1379 98.2629 27.29 97.4188 27.29H95.8583V31H93.3408V20.6651H97.4188C98.2432 20.6651 98.9401 20.8074 99.5093 21.092C100.079 21.3767 100.506 21.7693 100.79 22.2698C101.075 22.7704 101.217 23.3445 101.217 23.9923ZM97.2274 25.2878C97.7083 25.2878 98.0666 25.175 98.3021 24.9492C98.5377 24.7235 98.6555 24.4045 98.6555 23.9923C98.6555 23.5801 98.5377 23.2611 98.3021 23.0354C98.0666 22.8096 97.7083 22.6967 97.2274 22.6967H95.8583V25.2878H97.2274ZM105.59 20.6651V26.8484C105.59 27.4667 105.742 27.9427 106.046 28.2764C106.351 28.6101 106.797 28.777 107.386 28.777C107.975 28.777 108.426 28.6101 108.74 28.2764C109.055 27.9427 109.212 27.4667 109.212 26.8484V20.6651H111.729V26.8337C111.729 27.7562 111.533 28.5365 111.14 29.1745C110.748 29.8124 110.218 30.2933 109.55 30.6172C108.893 30.9411 108.156 31.1031 107.342 31.1031C106.527 31.1031 105.796 30.946 105.148 30.6319C104.51 30.3081 104.005 29.8271 103.632 29.1892C103.259 28.5414 103.072 27.7562 103.072 26.8337V20.6651H105.59ZM121.52 20.6651V22.682H118.782V31H116.265V22.682H113.526V20.6651H121.52ZM125.89 22.682V24.7726H129.262V26.7159H125.89V28.9831H129.703V31H123.373V20.6651H129.703V22.682H125.89ZM137.197 31L135.048 27.0986H134.444V31H131.926V20.6651H136.152C136.966 20.6651 137.658 20.8074 138.227 21.092C138.807 21.3767 139.238 21.7693 139.523 22.2698C139.808 22.7605 139.95 23.3102 139.95 23.9187C139.95 24.6057 139.754 25.2191 139.361 25.7589C138.978 26.2987 138.409 26.6815 137.653 26.9073L140.038 31H137.197ZM134.444 25.3173H136.004C136.466 25.3173 136.809 25.2044 137.035 24.9787C137.271 24.7529 137.388 24.434 137.388 24.0217C137.388 23.6291 137.271 23.32 137.035 23.0942C136.809 22.8685 136.466 22.7556 136.004 22.7556H134.444V25.3173Z" fill="#1E40AF"/>
<path d="M59.0116 45.1031C58.2558 45.1031 57.5786 44.9804 56.9799 44.735C56.3812 44.4896 55.9003 44.1265 55.5371 43.6456C55.1838 43.1646 54.9973 42.5856 54.9777 41.9084H57.6571C57.6964 42.2911 57.8289 42.5856 58.0546 42.7917C58.2804 42.988 58.5748 43.0861 58.9379 43.0861C59.3109 43.0861 59.6053 43.0027 59.8213 42.8359C60.0372 42.6592 60.1452 42.4187 60.1452 42.1145C60.1452 41.8593 60.0568 41.6483 59.8802 41.4814C59.7133 41.3146 59.5023 41.1772 59.2471 41.0692C59.0017 40.9612 58.6484 40.8386 58.1871 40.7012C57.5197 40.495 56.975 40.2889 56.553 40.0828C56.1309 39.8767 55.7678 39.5725 55.4635 39.1701C55.1593 38.7677 55.0071 38.2426 55.0071 37.5948C55.0071 36.633 55.3556 35.8821 56.0524 35.3423C56.7493 34.7927 57.6571 34.5179 58.776 34.5179C59.9145 34.5179 60.8322 34.7927 61.529 35.3423C62.2259 35.8821 62.5988 36.6379 62.6479 37.6095H59.9243C59.9047 37.2758 59.782 37.0157 59.5563 36.8292C59.3305 36.633 59.041 36.5348 58.6877 36.5348C58.3834 36.5348 58.138 36.6182 57.9516 36.7851C57.7651 36.9421 57.6718 37.1728 57.6718 37.477C57.6718 37.8107 57.8289 38.0708 58.1429 38.2573C58.457 38.4438 58.9478 38.645 59.6152 38.8609C60.2826 39.0866 60.8224 39.3026 61.2346 39.5087C61.6566 39.7148 62.0198 40.0141 62.324 40.4067C62.6283 40.7993 62.7804 41.3048 62.7804 41.9231C62.7804 42.512 62.6283 43.0469 62.324 43.5278C62.0296 44.0087 61.5977 44.3915 61.0285 44.6761C60.4592 44.9607 59.7869 45.1031 59.0116 45.1031ZM69.8063 45.1031C68.8346 45.1031 67.9415 44.8773 67.1269 44.4258C66.3221 43.9744 65.6792 43.3462 65.1983 42.5414C64.7272 41.7268 64.4916 40.814 64.4916 39.8031C64.4916 38.7922 64.7272 37.8843 65.1983 37.0795C65.6792 36.2747 66.3221 35.6466 67.1269 35.1951C67.9415 34.7436 68.8346 34.5179 69.8063 34.5179C70.7779 34.5179 71.6662 34.7436 72.471 35.1951C73.2856 35.6466 73.9236 36.2747 74.3849 37.0795C74.856 37.8843 75.0915 38.7922 75.0915 39.8031C75.0915 40.814 74.856 41.7268 74.3849 42.5414C73.9137 43.3462 73.2758 43.9744 72.471 44.4258C71.6662 44.8773 70.7779 45.1031 69.8063 45.1031ZM69.8063 42.8064C70.6307 42.8064 71.2883 42.5316 71.779 41.982C72.2796 41.4323 72.5299 40.7061 72.5299 39.8031C72.5299 38.8903 72.2796 38.164 71.779 37.6242C71.2883 37.0746 70.6307 36.7998 69.8063 36.7998C68.972 36.7998 68.3046 37.0697 67.8041 37.6095C67.3133 38.1493 67.068 38.8805 67.068 39.8031C67.068 40.7159 67.3133 41.4471 67.8041 41.9967C68.3046 42.5365 68.972 42.8064 69.8063 42.8064ZM79.5984 43.0567H82.8962V45H77.0809V34.6651H79.5984V43.0567ZM87.1591 34.6651V40.8484C87.1591 41.4667 87.3113 41.9427 87.6155 42.2764C87.9198 42.6101 88.3663 42.777 88.9552 42.777C89.5441 42.777 89.9956 42.6101 90.3097 42.2764C90.6237 41.9427 90.7808 41.4667 90.7808 40.8484V34.6651H93.2982V40.8337C93.2982 41.7562 93.1019 42.5365 92.7094 43.1745C92.3168 43.8124 91.7868 44.2933 91.1194 44.6172C90.4618 44.9411 89.7257 45.1031 88.9111 45.1031C88.0964 45.1031 87.3652 44.946 86.7175 44.6319C86.0795 44.3081 85.5741 43.8271 85.2011 43.1892C84.8281 42.5414 84.6417 41.7562 84.6417 40.8337V34.6651H87.1591ZM103.09 34.6651V36.682H100.351V45H97.8338V36.682H95.0955V34.6651H103.09ZM107.459 34.6651V45H104.942V34.6651H107.459ZM114.76 45.1031C113.789 45.1031 112.896 44.8773 112.081 44.4258C111.276 43.9744 110.633 43.3462 110.152 42.5414C109.681 41.7268 109.446 40.814 109.446 39.8031C109.446 38.7922 109.681 37.8843 110.152 37.0795C110.633 36.2747 111.276 35.6466 112.081 35.1951C112.896 34.7436 113.789 34.5179 114.76 34.5179C115.732 34.5179 116.62 34.7436 117.425 35.1951C118.24 35.6466 118.878 36.2747 119.339 37.0795C119.81 37.8843 120.046 38.7922 120.046 39.8031C120.046 40.814 119.81 41.7268 119.339 42.5414C118.868 43.3462 118.23 43.9744 117.425 44.4258C116.62 44.8773 115.732 45.1031 114.76 45.1031ZM114.76 42.8064C115.585 42.8064 116.242 42.5316 116.733 41.982C117.234 41.4323 117.484 40.7061 117.484 39.8031C117.484 38.8903 117.234 38.164 116.733 37.6242C116.242 37.0746 115.585 36.7998 114.76 36.7998C113.926 36.7998 113.259 37.0697 112.758 37.6095C112.267 38.1493 112.022 38.8805 112.022 39.8031C112.022 40.7159 112.267 41.4471 112.758 41.9967C113.259 42.5365 113.926 42.8064 114.76 42.8064ZM131.281 45H128.763L124.553 38.6253V45H122.035V34.6651H124.553L128.763 41.0692V34.6651H131.281V45Z" fill="#3B82F6"/>
<path d="M32.8778 4.20117V10.2118H24.7174V35.0001L17.5 35L17.2151 10.2118H9.05469V4.20117H32.8778Z" fill="#3B82F6"/>
<path d="M17.5 33.5C17.5 30.4581 18.1073 27.8093 19.4235 25.4401C20.7397 23.0417 22.5677 21.1845 24.9076 19.8683C27.2768 18.5228 29.953 17.8501 32.9364 17.8501C36.5925 17.8501 39.7221 18.8153 42.3252 20.7457C44.9284 22.6761 46.6687 25.3085 47.5461 28.6429H39.298C38.6838 27.3559 37.8063 26.3761 36.6656 25.7034C35.5542 25.0307 34.2818 24.6943 32.8487 24.6943C30.538 24.6943 28.6661 25.4986 27.2329 27.1073C25.7997 28.716 25.0831 30.8658 25.0831 33.5567C25.0831 36.2475 25.7997 38.3973 27.2329 40.006C28.6661 41.6147 30.538 42.419 32.8487 42.419C34.2818 42.419 35.5542 42.0826 36.6656 41.4099C37.8063 40.7372 38.6838 39.7574 39.298 38.4704H47.5461C46.6687 41.8048 44.9284 44.4372 42.3252 46.3676C39.7221 48.2687 36.5925 49.2193 32.9364 49.2193C29.953 49.2193 27.2768 48.5612 24.9076 47.245C22.5677 45.8996 20.7397 44.0423 19.4235 41.6732C18.1073 39.304 17.5 36.5419 17.5 33.5Z" fill="#3B82F6"/>
<path d="M32 30V34.826H36.826" stroke="#3B82F6" stroke-width="2"/>
</svg>
